<svg xmlns="http://www.w3.org/2000/svg" width="1200" height="320" viewBox="0 0 1200 320" role="img" aria-label="José Roberto Ramos — Gerente Geral no Banco do Brasil · IA aplicada à gestão">
  <defs>
    <linearGradient id="fundo" x1="0" y1="0" x2="1" y2="1">
      <stop offset="0" stop-color="#0D1117"/>
      <stop offset="1" stop-color="#0F1B2D"/>
    </linearGradient>
    <pattern id="grade" width="40" height="40" patternUnits="userSpaceOnUse">
      <path d="M40 0H0V40" fill="none" stroke="#30363D" stroke-width="1" opacity="0.35"/>
    </pattern>
    <radialGradient id="brilho">
      <stop offset="0" stop-color="#22D3EE" stop-opacity="0.22"/>
      <stop offset="1" stop-color="#22D3EE" stop-opacity="0"/>
    </radialGradient>
  </defs>

  <rect width="1200" height="320" rx="12" fill="url(#fundo)"/>
  <rect width="1200" height="320" rx="12" fill="url(#grade)"/>
  <rect x="0.5" y="0.5" width="1199" height="319" rx="12" fill="none" stroke="#30363D"/>

  <!-- barra da janela de terminal -->
  <circle cx="30" cy="28" r="6" fill="#FF5F56"/>
  <circle cx="50" cy="28" r="6" fill="#FFBD2E"/>
  <circle cx="70" cy="28" r="6" fill="#27C93F"/>
  <text x="96" y="33" font-family="Consolas, 'SFMono-Regular', Menlo, 'DejaVu Sans Mono', monospace" font-size="14" fill="#8B949E">~/bettograpiuna</text>
  <line x1="0" y1="52" x2="1200" y2="52" stroke="#30363D"/>

  <!-- identidade -->
  <text x="60" y="108" font-family="Consolas, 'SFMono-Regular', Menlo, 'DejaVu Sans Mono', monospace" font-size="22" fill="#22D3EE">$ whoami</text>
  <text x="60" y="168" font-family="'Segoe UI', -apple-system, 'Helvetica Neue', Arial, sans-serif" font-size="52" font-weight="700" fill="#F0F6FC">José Roberto Ramos</text>
  <text x="60" y="212" font-family="'Segoe UI', -apple-system, 'Helvetica Neue', Arial, sans-serif" font-size="25" fill="#C9D1D9">Gerente Geral no Banco do Brasil · IA aplicada à gestão</text>
  <text x="60" y="268" font-family="Consolas, 'SFMono-Regular', Menlo, 'DejaVu Sans Mono', monospace" font-size="20" fill="#3FB950">&gt; número sai de código, nunca de leitura<tspan>▍<animate attributeName="opacity" values="1;1;0;0" keyTimes="0;0.5;0.5;1" dur="1.1s" repeatCount="indefinite"/></tspan></text>

  <!-- roteador da AlfrênIA e os 14 especialistas -->
  <circle cx="1030" cy="178" r="140" fill="url(#brilho)"/>
  <circle cx="1030" cy="178" r="100" fill="none" stroke="#30363D" stroke-dasharray="3 6"/>
  <g stroke="#22D3EE" stroke-width="1" opacity="0.35">
    <line x1="1030" y1="178" x2="1030.0" y2="78.0"/>
    <line x1="1030" y1="178" x2="1073.4" y2="87.9"/>
    <line x1="1030" y1="178" x2="1108.2" y2="115.7"/>
    <line x1="1030" y1="178" x2="1127.5" y2="155.7"/>
    <line x1="1030" y1="178" x2="1127.5" y2="200.3"/>
    <line x1="1030" y1="178" x2="1108.2" y2="240.3"/>
    <line x1="1030" y1="178" x2="1073.4" y2="268.1"/>
    <line x1="1030" y1="178" x2="1030.0" y2="278.0"/>
    <line x1="1030" y1="178" x2="986.6" y2="268.1"/>
    <line x1="1030" y1="178" x2="951.8" y2="240.3"/>
    <line x1="1030" y1="178" x2="932.5" y2="200.3"/>
    <line x1="1030" y1="178" x2="932.5" y2="155.7"/>
    <line x1="1030" y1="178" x2="951.8" y2="115.7"/>
    <line x1="1030" y1="178" x2="986.6" y2="87.9"/>
  </g>
  <g fill="#22D3EE">
    <circle cx="1030.0" cy="78.0" r="5"><animate attributeName="opacity" values="0.45;1;0.45" dur="4.2s" begin="0.0s" repeatCount="indefinite"/></circle>
    <circle cx="1073.4" cy="87.9" r="5"><animate attributeName="opacity" values="0.45;1;0.45" dur="4.2s" begin="0.3s" repeatCount="indefinite"/></circle>
    <circle cx="1108.2" cy="115.7" r="5"><animate attributeName="opacity" values="0.45;1;0.45" dur="4.2s" begin="0.6s" repeatCount="indefinite"/></circle>
    <circle cx="1127.5" cy="155.7" r="5"><animate attributeName="opacity" values="0.45;1;0.45" dur="4.2s" begin="0.9s" repeatCount="indefinite"/></circle>
    <circle cx="1127.5" cy="200.3" r="5"><animate attributeName="opacity" values="0.45;1;0.45" dur="4.2s" begin="1.2s" repeatCount="indefinite"/></circle>
    <circle cx="1108.2" cy="240.3" r="5"><animate attributeName="opacity" values="0.45;1;0.45" dur="4.2s" begin="1.5s" repeatCount="indefinite"/></circle>
    <circle cx="1073.4" cy="268.1" r="5"><animate attributeName="opacity" values="0.45;1;0.45" dur="4.2s" begin="1.8s" repeatCount="indefinite"/></circle>
    <circle cx="1030.0" cy="278.0" r="5"><animate attributeName="opacity" values="0.45;1;0.45" dur="4.2s" begin="2.1s" repeatCount="indefinite"/></circle>
    <circle cx="986.6" cy="268.1" r="5"><animate attributeName="opacity" values="0.45;1;0.45" dur="4.2s" begin="2.4s" repeatCount="indefinite"/></circle>
    <circle cx="951.8" cy="240.3" r="5"><animate attributeName="opacity" values="0.45;1;0.45" dur="4.2s" begin="2.7s" repeatCount="indefinite"/></circle>
    <circle cx="932.5" cy="200.3" r="5"><animate attributeName="opacity" values="0.45;1;0.45" dur="4.2s" begin="3.0s" repeatCount="indefinite"/></circle>
    <circle cx="932.5" cy="155.7" r="5"><animate attributeName="opacity" values="0.45;1;0.45" dur="4.2s" begin="3.3s" repeatCount="indefinite"/></circle>
    <circle cx="951.8" cy="115.7" r="5"><animate attributeName="opacity" values="0.45;1;0.45" dur="4.2s" begin="3.6s" repeatCount="indefinite"/></circle>
    <circle cx="986.6" cy="87.9" r="5"><animate attributeName="opacity" values="0.45;1;0.45" dur="4.2s" begin="3.9s" repeatCount="indefinite"/></circle>
  </g>
  <circle cx="1030" cy="178" r="15" fill="#0D1117" stroke="#22D3EE" stroke-width="2"/>
  <circle cx="1030" cy="178" r="5" fill="#3FB950">
    <animate attributeName="r" values="4;6.5;4" dur="2.4s" repeatCount="indefinite"/>
  </circle>
  <text x="1030" y="306" text-anchor="middle" font-family="Consolas, 'SFMono-Regular', Menlo, 'DejaVu Sans Mono', monospace" font-size="13" fill="#8B949E">roteador · 14 especialistas</text>
</svg>
