<svg xmlns="http://www.w3.org/2000/svg" width="600" height="277" viewBox="0 0 600 277" role="img" aria-label="Prospect. Prospecção de empresas a partir da base pública do CNPJ.. (TypeScript, Node.js, SQLite)">
  <defs>
    <linearGradient id="fundo" x1="0" y1="0" x2="1" y2="1">
      <stop offset="0" stop-color="#0D1117"/>
      <stop offset="1" stop-color="#111B29"/>
    </linearGradient>
    <pattern id="grade" width="32" height="32" patternUnits="userSpaceOnUse">
      <path d="M32 0H0V32" fill="none" stroke="#30363D" stroke-width="1" opacity="0.28"/>
    </pattern>
    <radialGradient id="brilho" cx="1" cy="0" r="0.9">
      <stop offset="0" stop-color="#22D3EE" stop-opacity="0.13"/>
      <stop offset="1" stop-color="#22D3EE" stop-opacity="0"/>
    </radialGradient>
  </defs>
  <rect width="600" height="277" rx="12" fill="url(#fundo)"/>
  <rect width="600" height="277" rx="12" fill="url(#grade)"/>
  <rect width="600" height="277" rx="12" fill="url(#brilho)"/>
  <rect x="0.5" y="0.5" width="599" height="276" rx="12" fill="none" stroke="#30363D"/>
  <circle cx="24" cy="22" r="4.5" fill="#FF5F56"/>
  <circle cx="39" cy="22" r="4.5" fill="#FFBD2E"/>
  <circle cx="54" cy="22" r="4.5" fill="#27C93F"/>
  <text x="70" y="27" font-family="Consolas, 'SFMono-Regular', Menlo, 'DejaVu Sans Mono', monospace" font-size="13" fill="#22D3EE">prospecção</text>
  <line x1="0" y1="42" x2="600" y2="42" stroke="#30363D"/>
  <text x="28" y="84" font-family="'Segoe UI', -apple-system, 'Helvetica Neue', Arial, sans-serif" font-size="26" font-weight="700" fill="#F0F6FC">Prospect</text>
  <text x="28" y="120" font-family="'Segoe UI', -apple-system, 'Helvetica Neue', Arial, sans-serif" font-size="18" fill="#C9D1D9">Prospecção de empresas a partir da base pública do</text>
  <text x="28" y="147" font-family="'Segoe UI', -apple-system, 'Helvetica Neue', Arial, sans-serif" font-size="18" fill="#C9D1D9">CNPJ.</text>
  <rect x="28" y="227" width="100" height="28" rx="6" fill="#161B22" stroke="#30363D"/>
  <text x="38" y="246" font-family="Consolas, 'SFMono-Regular', Menlo, 'DejaVu Sans Mono', monospace" font-size="13" fill="#C9D1D9">TypeScript</text>
  <rect x="136" y="227" width="76" height="28" rx="6" fill="#161B22" stroke="#30363D"/>
  <text x="146" y="246" font-family="Consolas, 'SFMono-Regular', Menlo, 'DejaVu Sans Mono', monospace" font-size="13" fill="#C9D1D9">Node.js</text>
  <rect x="220" y="227" width="68" height="28" rx="6" fill="#161B22" stroke="#30363D"/>
  <text x="230" y="246" font-family="Consolas, 'SFMono-Regular', Menlo, 'DejaVu Sans Mono', monospace" font-size="13" fill="#C9D1D9">SQLite</text>
</svg>
